# xmcd CD database file
#
# Track frame offsets:
#	150
#	35734
#	55691
#	90861
#	118928
#	141895
#
# Disc length: 2391 seconds
#
# Revision: 0
# Processed by: cddbd v1.4PL0 Copyright (c) Steve Scherf et al.
# Submitted via: CDex 1.50
#
DISCID=4b095506
DTITLE=Sun Ra - Reflections in Blue
DYEAR=1993
DGENRE=Jazz
TTITLE0=State Street Chicago
TTITLE1=Nothin' from Nothin'
TTITLE2=Yesterdays
TTITLE3=Say It Isn't So
TTITLE4=I Dream Too Much
TTITLE5=Reflections in Blue
EXTD=YEAR: 1993
EXTT0=
EXTT1=
EXTT2=
EXTT3=
EXTT4=
EXTT5=
PLAYORDER=
